<svg xmlns="http://www.w3.org/2000/svg" height="40" viewBox="0 -960 960 960" width="40"><path d="M480-40q-112 0-212.667-61-100.667-61.001-160.667-146.001V-120H40v-240h240v66.666H155.666q50 75.334 139.167 131.001T480-106.666q77 0 145.167-29.5t118.667-80q50.5-50.5 80-118.667T853.334-480H920q0 91-34.5 171T791-169q-60 60-140 94.5T480-40ZM40-480q0-91 34.5-171T169-791q60-60 140-94.5T480-920q112 0 212.667 61 100.667 61.001 160.667 146.001V-840H920v240H680v-66.666h124.334Q754.334-742 665.5-797.667q-88.833-55.667-185.5-55.667-77 0-145.167 29.5t-118.667 80q-50.5 50.5-80 118.667T106.666-480H40Zm438 236q17.667 0 29.833-12.167Q520-268.333 520-286q0-17.666-12.167-30-12.166-12.333-29.833-12.333-17.667 0-29.833 12.167Q436-304 436-286.333q0 17.666 12.167 30Q460.333-244 478-244Zm-34-149.333h62.333q0-32.667 9.5-51.667t34.833-44.333q33.667-33.667 46.167-57.834 12.5-24.166 12.5-52.833 0-53.333-37.333-85.333t-92.667-32q-49.333 0-86 24.333-36.666 24.333-54 70.333l57.333 24q11-26 32.834-42 21.833-16 49.833-16 28.334 0 47.834 15.834 19.5 15.833 19.5 43.166 0 19-10 37t-36 42.334Q465-485.333 454.5-459.5T444-393.333Z"/></svg>