<?xml version="1.0" encoding="utf-8"?>
<!-- Generator: Adobe Illustrator 25.4.1, SVG Export Plug-In . SVG Version: 6.00 Build 0)  -->
<svg version="1.0" id="katman_1" xmlns="http://www.w3.org/2000/svg" xmlns:xlink="http://www.w3.org/1999/xlink" x="0px" y="0px"
	 viewBox="0 0 1405.6 991.4" style="enable-background:new 0 0 1405.6 991.4;" xml:space="preserve">
<style type="text/css">
	.st0{fill:#FFFFFF;}
</style>
<path d="M952.3,199.5c-233.3,142.7-443.6,34.6-498.1,1.1c-84,70.9-137.6,176.9-137.6,295.3c0,118.8,53.3,225,137.6,295.9
	c46.2-29.4,258.2-148.3,498.1-2.6c82.6-70.9,136.8-176,136.8-293.3C1089.1,376.9,1037,270.4,952.3,199.5L952.3,199.5z"/>
<path class="st0" d="M1049.2,376.3c0,0,55.9,119.7-2.6,243.2H364.7C306.1,496,362,376.3,362,376.3H1049.2z"/>
<path d="M715.1,419h25.7v-18.3h-25.7V419z M371.2,492.1l31.9-89.1h29.7l31.9,89.1h-29.1l-3.5-11.8h-29.1l-3.3,11.8H371.2z"/>
<path class="st0" d="M417.7,429.9l-9,31.9h18.4L417.7,429.9z"/>
<path d="M466.7,427.3h23.6v9.6c3.2-4.9,11.3-11.5,20.5-11.5c11.6,0,18.1,4.9,21.2,11.9c5.6-7.8,12.9-11.9,22.4-11.9
	c18.9,0,24.9,10.6,24.9,28.3v38.4h-25.7v-33c0-9.5-1.9-13.4-8.7-13.4c-7.5,0-9,6.6-9,14.3v32h-25.7v-33c0-9.5-1.9-13.4-8.7-13.4
	c-7.5,0-9,6.6-9,14.3v32h-25.7L466.7,427.3L466.7,427.3z M609.5,465.5c0,7.7,5.9,12.7,12.7,12.7c4.1,0,7.8-1.9,9.6-5.7h24.6
	c-4.4,16.1-20.8,21.4-35.9,21.4c-20.8,0-36.9-11.9-36.9-33.6c0-21.3,16-34.9,36.7-34.9c24,0,38.5,16.6,38.1,40.1H609.5z"/>
<path class="st0" d="M632.8,452.4c0-5.9-5.3-11.3-11.4-11.3c-7.7,0-12,4.3-12,11.3H632.8L632.8,452.4z"/>
<path d="M663.9,427.3h23.4v13.1h0.3c3.6-10.1,9.9-15,19.9-15c1.1,0,2.2,0.2,3.3,0.4v25.7c-1.7-0.3-3.6-0.7-5.3-0.7
	c-10.5,0-15.8,4.9-15.8,18.9v22.4h-25.7L663.9,427.3L663.9,427.3z M715.1,492.1h25.7v-64.8h-25.7V492.1z M794,452
	c-0.1-2.8-1.1-5.1-2.7-6.7c-1.6-1.7-3.8-2.6-6.7-2.6c-9.6,0-11.3,10-11.3,17.7c0,9.8,3.7,16.2,11.3,16.2c6.7,0,9.3-4.6,10-9.6h26
	c-2.2,19.7-18.1,27-36,27c-20.9,0-37-11.7-37-33.6c0-22.1,15.6-34.9,37-34.9c17.3,0,33.7,7.4,35.5,26.6L794,452L794,452L794,452z
	 M873.1,492.1l-1.2-6.9c-7.3,6.8-14.7,8.8-24.4,8.8c-12.2,0-23.1-6.1-23.1-19.5c0-29.4,46.1-16.1,46.1-28.2c0-4.7-5.7-5.3-8.4-5.3
	c-3.6,0-8.4,0.7-9,6.3h-24.7c0-13.7,9.8-21.8,35.4-21.8c30.7,0,32.5,11.4,32.5,26.8v30.3c0,3.7,0.1,5.6,3.5,8.3v1.2L873.1,492.1
	L873.1,492.1z"/>
<path class="st0" d="M870.5,463.4c-8.4,4.1-19.5,2.1-19.5,10.5c0,3.2,3.1,5.4,8.2,5.4C868.1,479.4,871.1,472.3,870.5,463.4
	L870.5,463.4z"/>
<path d="M904.7,427.3h23.5v10.1c5.8-7.8,12.1-12,21.9-12c17.1,0,25.1,10,25.1,27.8v38.8h-25.7v-34.3c0-6.4-1.7-12.1-9-12.1
	c-7.9,0-10,5.1-10,13.4v33h-25.7L904.7,427.3L904.7,427.3z M395.8,504.5h81.7v23.4h-26.2v65.7H422v-65.7h-26.2V504.5z"/>
<path d="M498,526.9c22.9,0,37,13.5,37,33.7c0,23.8-16.1,34.9-36.9,34.9c-20.8,0-36.9-11.4-36.9-33.5
	C461.3,539.4,476.1,526.9,498,526.9L498,526.9z"/>
<path class="st0" d="M487,560.5c0,12.2,4.6,17.6,11.1,17.6c6.9,0,11.1-5.3,11.1-17.6c0-9.5-4.2-16.7-10.9-16.3
	C489.6,544.2,487,553.2,487,560.5L487,560.5z"/>
<path d="M611.1,593.5h-23.9V584c-6.4,8.9-12.7,11.4-23.4,11.4c-14.1,0-23.2-8.7-23.2-27.2v-39.5h25.7v35c0,8.9,3.1,11.7,9.3,11.7
	c7.4,0,9.8-5.5,9.8-15.6v-31.2h25.7L611.1,593.5L611.1,593.5z M618.8,528.7h23.4v13.1h0.2c3.6-10.1,9.9-15,19.9-15
	c1.1,0,2.2,0.2,3.3,0.4V553c-1.7-0.2-3.6-0.7-5.3-0.7c-10.5,0-15.8,4.9-15.8,18.9v22.4h-25.7V528.7L618.8,528.7z M674,593.5h25.7
	v-64.8H674V593.5z M674,520.4h25.7v-18.3H674V520.4z M731.3,573.4c0,2.6,1,4.6,2.7,5.9c1.6,1.2,3.8,2,6.3,2c4,0,8.2-1.2,8.2-5.8
	c0-10.4-39.7-2.1-39.7-27.2c0-16.6,17.2-21.4,30.7-21.4c14.1,0,30.7,3.2,32.2,20.4h-23.4c-0.2-2.1-1.1-3.6-2.5-4.7
	c-1.4-1.1-3.2-1.6-5.2-1.6c-4.4,0-7.3,1.3-7.3,4.6c0,9,41,3,41,27.2c0,13.5-11.1,22.7-34.9,22.7c-14.8,0-31.2-4.6-32.5-22
	L731.3,573.4L731.3,573.4z M822.2,593.5c-33.8,1.9-37.9-0.5-37.9-22.9v-27.1h-9.2v-14.8h9.5v-20.2H810v20.2h12.4v14.8H810v23.5
	c0,6,0.9,8,8.1,8h4.1V593.5L822.2,593.5z M849.2,566.9c0,7.7,5.9,12.7,12.7,12.7c4.1,0,7.8-1.8,9.6-5.7h24.6
	c-4.5,16.1-20.8,21.4-35.9,21.4c-20.8,0-36.9-11.9-36.9-33.6c0-21.3,16-34.9,36.7-34.9c24,0,38.5,16.6,38.1,40.1H849.2L849.2,566.9z
	"/>
<path class="st0" d="M872.6,553.8c0-5.9-5.3-11.3-11.4-11.3c-7.7,0-12,4.3-12,11.3H872.6L872.6,553.8z"/>
<path d="M902.4,528.7h23.4v13.1h0.2c3.6-10.1,9.9-15,19.9-15c1.1,0,2.2,0.2,3.3,0.4V553c-1.7-0.2-3.6-0.7-5.3-0.7
	c-10.5,0-15.8,4.9-15.8,18.9v22.4h-25.7V528.7z M1005.7,577.3c0-11.7,9.4-21.2,21.1-21.3c0,0,0.1,0,0.1,0c11.7,0,21.2,9.5,21.2,21.3
	c0,11.7-9.5,21.2-21.2,21.2c-11.7,0-21.2-9.4-21.2-21.1C1005.7,577.3,1005.7,577.3,1005.7,577.3z"/>
<path class="st0" d="M1042.6,577.3c0-9.5-6.6-16.2-15.6-16.2c-9.2,0-15.6,6.7-15.6,16.2c0,9.5,6.4,16.2,15.6,16.2
	C1036.1,593.5,1042.6,586.7,1042.6,577.3z"/>
<path d="M1037.5,588.8h-5.5l-5.1-9.7h-3.8v9.7h-4.8v-22.9h11.1c6,0,8.9,1.6,8.9,7c0,4.3-2.2,6-6.3,6.2L1037.5,588.8L1037.5,588.8z"
	/>
<path class="st0" d="M1029.4,575.7c2.6,0.1,4.4-0.6,4.4-3.4c0-3.1-3.3-2.9-5.5-2.9h-5.2v6.3H1029.4L1029.4,575.7z"/>
<path d="M939.9,588.3h3.4V563h-3.4V588.3z M963.9,563h3.3v25.3h-3.8l-12.9-20.5h-0.1v20.5h-3.3V563h4.1l12.7,20.5h0.1V563z
	 M988.2,570.6c-0.9-4.4-4.7-5.2-7.1-5.2c-4.6,0-8.3,3.4-8.3,10.1c0,6,2.1,10.5,8.4,10.5c2.2,0,6.1-1.1,7.2-6.9h3.3
	c-1.4,9.5-9.2,10-11.1,10c-5.8,0-11.4-3.7-11.4-13.5c0-7.8,4.4-13.2,11.8-13.2c6.5,0,9.9,4.1,10.4,8.3L988.2,570.6L988.2,570.6z
	 M994.2,588.3h3.7v-3.7h-3.7V588.3z"/>
</svg>
