<?xml version="1.0" encoding="utf-8"?>
<!-- Generator: Adobe Illustrator 26.0.3, SVG Export Plug-In . SVG Version: 6.00 Build 0)  -->
<svg version="1.0" id="katman_1" xmlns="http://www.w3.org/2000/svg" xmlns:xlink="http://www.w3.org/1999/xlink" x="0px" y="0px"
	 viewBox="0 0 600 450" style="enable-background:new 0 0 600 450;" xml:space="preserve">
<style type="text/css">
	.st0{filter:url(#Adobe_OpacityMaskFilter);}
	.st1{fill-rule:evenodd;clip-rule:evenodd;fill:#FFFFFF;}
	.st2{mask:url(#b_00000036228694982377070320000013486013230782908051_);}
	.st3{fill:#010202;}
</style>
<g>
	<defs>
		<filter id="Adobe_OpacityMaskFilter" filterUnits="userSpaceOnUse" x="77" y="172" width="444.4" height="106.2">
			<feColorMatrix  type="matrix" values="1 0 0 0 0  0 1 0 0 0  0 0 1 0 0  0 0 0 1 0"/>
		</filter>
	</defs>
	
		<mask maskUnits="userSpaceOnUse" x="77" y="172" width="444.4" height="106.2" id="b_00000036228694982377070320000013486013230782908051_">
		<g class="st0">
			<path id="a_00000127723151658762163650000012063232440186429831_" class="st1" d="M-6.8,65.8h612v344.3h-612V65.8z"/>
		</g>
	</mask>
	<g class="st2">
		<path class="st3" d="M204.5,207.3H169c-9.2,0.2-16.5,7.9-16.4,17.3v36c-0.2,9.4,7.2,17.2,16.4,17.4h35.5
			c9.2-0.2,16.5-7.9,16.4-17.4v-36C221,215.2,213.7,207.4,204.5,207.3z M210.5,229.4v26.7c0.1,6.1-4.6,11.1-10.6,11.2h-26.4
			c-6-0.1-10.7-5.1-10.6-11.2v-26.7c-0.1-6.1,4.6-11.1,10.6-11.2h26.4C205.8,218.3,210.6,223.4,210.5,229.4z M279.8,207.3h-35.7
			c-9.2,0.2-16.5,7.9-16.4,17.3v36c-0.1,9.4,7.2,17.2,16.4,17.4h35.7c9.2-0.2,16.5-7.9,16.4-17.4v-36
			C296.3,215.2,289,207.4,279.8,207.3z M285.9,229.4v26.7c0.1,6.1-4.6,11.1-10.6,11.2h-26.4c-5.9-0.2-10.6-5.2-10.5-11.2v-26.7
			c-0.1-6.1,4.6-11.1,10.6-11.2h26.4C281.3,218.4,285.9,223.4,285.9,229.4L285.9,229.4z M429.8,207.3h-35.6
			c-9.2,0.2-16.5,7.9-16.4,17.3v36c-0.1,9.4,7.2,17.2,16.4,17.3h35.6c9.2-0.2,16.5-7.9,16.4-17.3v-36
			C446.3,215.2,439,207.4,429.8,207.3L429.8,207.3z M435.8,229.4v26.7c0.1,6.1-4.6,11.1-10.6,11.2h-26.4c-6-0.1-10.7-5.1-10.6-11.2
			v-26.7c-0.1-6.1,4.6-11.1,10.6-11.2h26.4C431.2,218.3,435.9,223.4,435.8,229.4z M505,207.3h-35.6c-9.2,0.2-16.5,7.9-16.4,17.3v36
			c-0.1,9.4,7.2,17.2,16.4,17.3H505c9.2-0.2,16.5-7.9,16.4-17.3v-36C521.6,215.2,514.2,207.4,505,207.3z M511.1,229.4v26.7
			c0.1,6.1-4.6,11.1-10.6,11.2h-26.4c-5.9-0.1-10.7-5.1-10.6-11.2v-26.7c-0.1-6.1,4.6-11.1,10.6-11.2h26.4
			C506.4,218.3,511.2,223.4,511.1,229.4z M128.8,207.3H93.2c-2,0-4,0.4-5.8,1.2V172H77v88.6c-0.1,9.4,7.2,17.2,16.4,17.3h35.4
			c9.2-0.2,16.5-7.9,16.4-17.4v-36C145.3,215.2,138,207.4,128.8,207.3z M134.8,229.4v26.7c0.1,6.1-4.6,11.1-10.6,11.2H97.8
			c-5.9-0.1-10.7-5.1-10.6-11.2v-26.7c0-6,4.7-11,10.6-11.1h26.4C130.1,218.5,134.9,223.4,134.8,229.4z M354.9,207.6h-35.5
			c-2,0-4,0.4-5.8,1.2v-36.4h-10.4v105.7h10.4v-0.9c0-4.3-0.2-47.1-0.2-47.4c0-6,4.7-11,10.6-11.1h26.4c5.9,0.1,10.7,5.1,10.6,11.2
			v48.3h10.5v-53.2c0.2-9.4-7.1-17.3-16.3-17.5L354.9,207.6L354.9,207.6z"/>
	</g>
</g>
</svg>
