<?xml version="1.0" encoding="UTF-8" standalone="no"?>
<!DOCTYPE svg PUBLIC "-//W3C//DTD SVG 1.0//EN" "http://www.w3.org/TR/2001/REC-SVG-20010904/DTD/svg10.dtd">

<svg
   xmlns:svg="http://www.w3.org/2000/svg"
   xmlns="http://www.w3.org/2000/svg"
   version="1.0"
   width="1024"
   height="270"
   viewBox="-25.0503846 -25.0503846 3358.8507692 885.1135892"
   id="svg2665">
  <defs
     id="defs2667" />
  <path
     d="M 3072.5,243.75 C 3072.5,243.75 3088.75,222.5 3115,210 L 3171.25,198.75 C 3171.25,198.75 3227.5,198.75 3268.75,238.75 C 3268.75,238.75 3308.75,280 3308.75,337.5 L 3308.75,555 L 3267.5,555 L 3267.5,337.5 C 3267.5,337.5 3267.5,296.25 3240,267.5 C 3240,267.5 3211.25,238.75 3171.25,238.75 C 3171.25,238.75 3128.75,238.75 3101.25,265 C 3101.25,265 3072.5,292.5 3072.5,337.5 L 3072.5,555 L 3031.25,555 L 3031.25,210 L 3072.5,210 L 3072.5,243.75"
     id="path2571"
     style="fill:#000000;stroke:none;stroke-width:1.25;stroke-linecap:round;stroke-linejoin:round;stroke-miterlimit:4;stroke-opacity:1" />
  <path
     d="M 2958.75,27.5 L 2951.25,46.25 L 2933.75,52.5 L 2915,46.25 C 2915,46.25 2907.5,38.75 2907.5,27.5 C 2907.5,27.5 2907.5,16.25 2915,10 C 2915,10 2922.5,2.5 2933.75,2.5 C 2933.75,2.5 2943.75,2.5 2951.25,10 L 2958.75,27.5"
     id="path2573"
     style="fill:#000000;stroke:none;stroke-width:1.25;stroke-linecap:round;stroke-linejoin:round;stroke-miterlimit:4;stroke-opacity:1" />
  <path
     d="M 2953.75,210 L 2953.75,555 L 2912.5,555 L 2912.5,210 L 2953.75,210"
     id="path2575"
     style="fill:#000000;stroke:none;stroke-width:1.25;stroke-linecap:round;stroke-linejoin:round;stroke-miterlimit:4;stroke-opacity:1" />
  <path
     d="M 2665,198.76282 C 2588.75,198.76282 2535,252.51282 2535,252.51282 C 2482.5,305.01282 2482.5,381.26282 2482.5,381.26282 C 2482.5,457.51282 2535,510.01282 2535,510.01282 C 2588.75,563.76282 2665,563.76282 2665,563.76282 C 2717.5,563.76282 2762.5,535.01282 2762.5,535.01282 C 2805,507.51282 2827.5,461.26282 2827.5,461.26282 L 2791.25,445.01282 C 2775,480.01282 2740,501.26282 2740,501.26282 C 2706.25,523.76282 2665,523.76282 2665,523.76282 C 2606.25,523.76282 2565,482.51282 2565,482.51282 C 2523.75,442.51282 2522.5,385.01282 2522.5,385.01282 L 2846.25,385.01282 L 2846.25,381.26282 C 2846.25,305.01282 2793.75,252.51282 2793.75,252.51282 C 2740,198.76282 2665,198.76282 2665,198.76282 z M 2665,238.76282 C 2712.5,238.76282 2751.25,268.76282 2751.25,268.76282 C 2788.75,297.51282 2801.25,342.51282 2801.25,342.51282 L 2528.75,342.51282 C 2540,297.51282 2578.75,268.76282 2578.75,268.76282 C 2616.25,238.76282 2665,238.76282 2665,238.76282 z"
     id="path2577"
     style="fill:#000000;stroke:none;stroke-width:1.25;stroke-linecap:round;stroke-linejoin:round;stroke-miterlimit:4;stroke-opacity:1" />
  <path
     d="M 2416.25,2.5 L 2416.25,555 L 2375,555 L 2375,2.5 L 2416.25,2.5"
     id="path2581"
     style="fill:#000000;stroke:none;stroke-width:1.25;stroke-linecap:round;stroke-linejoin:round;stroke-miterlimit:4;stroke-opacity:1" />
  <path
     d="M 2026.25,253.75 L 2257.5,3.75 L 2313.75,3.75 L 2092.5,242.5 L 2311.25,555 L 2261.25,555 L 2063.75,273.75 L 2026.25,316.25 L 2026.25,555 L 1983.75,555 L 1983.75,2.5 L 2026.25,2.5 L 2026.25,253.75"
     id="path2583"
     style="fill:#000000;stroke:none;stroke-width:1.25;stroke-linecap:round;stroke-linejoin:round;stroke-miterlimit:4;stroke-opacity:1" />
  <path
     d="M 1645,238.75 C 1645,238.75 1603.75,238.75 1576.25,265 C 1576.25,265 1547.5,293.75 1547.5,337.5 L 1547.5,555 L 1506.25,555 L 1506.25,210 L 1547.5,210 L 1547.5,243.75 C 1547.5,243.75 1562.5,222.5 1590,210 L 1645,198.75 C 1645,198.75 1702.5,198.75 1742.5,238.75 C 1742.5,238.75 1782.5,280 1782.5,337.5 L 1782.5,555 L 1741.25,555 L 1741.25,337.5 C 1741.25,337.5 1741.25,296.25 1713.75,267.5 C 1713.75,267.5 1686.25,238.75 1645,238.75"
     id="path2585"
     style="fill:#000000;stroke:none;stroke-width:1.25;stroke-linecap:round;stroke-linejoin:round;stroke-miterlimit:4;stroke-opacity:1" />
  <path
     d="M 1393.75,46.25 C 1393.75,46.25 1386.25,38.75 1386.25,27.5 C 1386.25,27.5 1386.25,16.25 1393.75,10 C 1393.75,10 1401.25,2.5 1412.5,2.5 C 1412.5,2.5 1422.5,2.5 1430,10 L 1437.5,27.5 L 1430,46.25 L 1412.5,52.5 L 1393.75,46.25"
     id="path2587"
     style="fill:#000000;stroke:none;stroke-width:1.25;stroke-linecap:round;stroke-linejoin:round;stroke-miterlimit:4;stroke-opacity:1" />
  <path
     d="M 1336.25,210 L 1167.5,576.25 L 997.5,210 L 1045,210 L 1167.5,478.75 L 1290,210 L 1336.25,210"
     id="path2589"
     style="fill:#000000;stroke:none;stroke-width:1.25;stroke-linecap:round;stroke-linejoin:round;stroke-miterlimit:4;stroke-opacity:1" />
  <path
     d="M 1431.25,210 L 1431.25,555 L 1390,555 L 1390,210 L 1431.25,210"
     id="path2591"
     style="fill:#000000;stroke:none;stroke-width:1.25;stroke-linecap:round;stroke-linejoin:round;stroke-miterlimit:4;stroke-opacity:1" />
  <path
     d="M 651.25,200.01282 C 575,200.01282 522.5,252.51282 522.5,252.51282 C 468.75,306.26282 468.75,381.26282 468.75,381.26282 C 468.75,457.51282 522.5,511.26282 522.5,511.26282 C 575,563.76282 651.25,563.76282 651.25,563.76282 C 695,563.76282 732.5,543.76282 732.5,543.76282 C 770,525.01282 795,492.51282 795,492.51282 L 795,555.01282 L 837.5,555.01282 L 837.5,210.01282 L 795,210.01282 L 795,270.01282 C 770,237.51282 733.75,218.76282 733.75,218.76282 C 695,200.01282 651.25,200.01282 651.25,200.01282 z M 651.25,238.76282 C 710,238.76282 751.25,281.26282 751.25,281.26282 C 792.5,322.51282 792.5,381.26282 792.5,381.26282 C 792.5,440.01282 751.25,482.51282 751.25,482.51282 C 710,523.76282 651.25,523.76282 651.25,523.76282 C 592.5,523.76282 550,482.51282 550,482.51282 C 508.75,440.01282 508.75,381.26282 508.75,381.26282 C 508.75,322.51282 550,281.26282 550,281.26282 C 592.5,238.76282 651.25,238.76282 651.25,238.76282 z"
     id="path2593"
     style="fill:#000000;stroke:none;stroke-width:1.25;stroke-linecap:round;stroke-linejoin:round;stroke-miterlimit:4;stroke-opacity:1" />
  <path
     d="M 956.25,2.5 L 956.25,555 L 913.75,555 L 913.75,2.5 L 956.25,2.5"
     id="path2595"
     style="fill:#000000;stroke:none;stroke-width:1.25;stroke-linecap:round;stroke-linejoin:round;stroke-miterlimit:4;stroke-opacity:1" />
  <path
     d="M 427.5,95 C 427.5,95 363.75,42.5 280,42.5 C 280,42.5 182.5,42.5 113.75,113.75 C 113.75,113.75 43.75,183.75 43.75,282.5 C 43.75,282.5 43.75,380 113.75,450 C 113.75,450 182.5,521.25 280,521.25 C 280,521.25 363.75,521.25 427.5,468.75 L 457.5,501.25 C 457.5,501.25 380,563.75 280,563.75 C 280,563.75 163.75,563.75 82.5,481.25 C 82.5,481.25 0,398.75 0,282.5 C 0,282.5 0,166.25 82.5,82.5 C 82.5,82.5 163.75,2.8421709e-14 280,2.8421709e-14 C 280,2.8421709e-14 380,2.8421709e-14 457.5,62.5 L 427.5,95"
     id="path2599"
     style="fill:#000000;stroke:none;stroke-width:1.25;stroke-linecap:round;stroke-linejoin:round;stroke-miterlimit:4;stroke-opacity:1" />
  <path
     d="M 955,760 C 955,760 941.25,742.5 923.75,742.5 C 923.75,742.5 907.5,742.5 897.5,753.75 C 897.5,753.75 886.25,765 886.25,780 C 886.25,780 886.25,796.25 896.25,807.5 C 896.25,807.5 906.25,818.75 922.5,818.75 C 922.5,818.75 942.5,818.75 956.25,801.25 L 956.25,825 C 956.25,825 941.25,835 923.75,835 C 923.75,835 900,835 885,820 C 885,820 868.75,803.75 868.75,780 C 868.75,780 868.75,757.5 885,742.5 C 885,742.5 901.25,726.25 923.75,726.25 C 923.75,726.25 941.25,726.25 955,737.5 L 955,760"
     id="path2601"
     style="fill:#000000;stroke:none;stroke-width:1.25;stroke-linecap:round;stroke-linejoin:round;stroke-miterlimit:4;stroke-opacity:1" />
  <path
     d="M 1105,726.26282 C 1082.5,726.26282 1066.25,742.51282 1066.25,742.51282 C 1051.25,758.76282 1051.25,781.26282 1051.25,781.26282 C 1051.25,803.76282 1066.25,818.76282 1066.25,818.76282 C 1082.5,835.01282 1105,835.01282 1105,835.01282 C 1127.5,835.01282 1143.75,818.76282 1143.75,818.76282 C 1160,803.76282 1160,781.26282 1160,781.26282 C 1160,758.76282 1143.75,742.51282 1143.75,742.51282 C 1127.5,726.26282 1105,726.26282 1105,726.26282 z M 1104.2812,742.51282 C 1104.7451,742.49085 1105,742.51282 1105,742.51282 C 1121.25,742.51282 1131.25,753.76282 1131.25,753.76282 C 1141.25,765.01282 1141.25,780.01282 1141.25,780.01282 C 1141.25,796.26282 1131.25,807.51282 1131.25,807.51282 C 1121.25,818.76282 1105,818.76282 1105,818.76282 C 1088.75,818.76282 1078.75,807.51282 1078.75,807.51282 C 1068.75,796.26282 1068.75,780.01282 1068.75,780.01282 C 1068.75,765.01282 1078.75,753.76282 1078.75,753.76282 C 1087.5,743.91907 1101.0342,742.66663 1104.2812,742.51282 z"
     id="path2603"
     style="fill:#000000;stroke:none;stroke-width:1.25;stroke-linecap:round;stroke-linejoin:round;stroke-miterlimit:4;stroke-opacity:1" />
  <path
     d="M 1260,651.25 L 1277.5,651.25 L 1277.5,832.5 L 1260,832.5 L 1260,651.25"
     id="path2607"
     style="fill:#000000;stroke:none;stroke-width:1.25;stroke-linecap:round;stroke-linejoin:round;stroke-miterlimit:4;stroke-opacity:1" />
  <path
     d="M 1403.75,832.5 L 1386.25,832.5 L 1386.25,651.25 L 1403.75,651.25 L 1403.75,832.5"
     id="path2609"
     style="fill:#000000;stroke:none;stroke-width:1.25;stroke-linecap:round;stroke-linejoin:round;stroke-miterlimit:4;stroke-opacity:1" />
  <path
     d="M 1553.75,726.26282 C 1530,726.26282 1516.25,742.51282 1516.25,742.51282 C 1503.75,758.76282 1503.75,782.51282 1503.75,782.51282 C 1503.75,805.01282 1517.5,820.01282 1517.5,820.01282 C 1531.25,835.01282 1553.75,835.01282 1553.75,835.01282 C 1586.25,835.01282 1602.5,806.26282 1602.5,806.26282 L 1587.5,797.51282 C 1575,818.76282 1556.25,818.76282 1556.25,818.76282 C 1541.25,818.76282 1531.25,808.76282 1531.25,808.76282 C 1522.5,798.76282 1522.5,785.01282 1522.5,785.01282 L 1602.5,785.01282 C 1603.75,760.01282 1591.25,743.76282 1591.25,743.76282 C 1577.5,726.26282 1553.75,726.26282 1553.75,726.26282 z M 1553.25,742.51282 C 1553.5747,742.49817 1553.75,742.51282 1553.75,742.51282 C 1565,742.51282 1573.75,750.01282 1573.75,750.01282 L 1585,770.01282 L 1522.5,770.01282 C 1523.75,758.76282 1533.75,750.01282 1533.75,750.01282 C 1541.4062,743.45032 1550.977,742.61536 1553.25,742.51282 z"
     id="path2611"
     style="fill:#000000;stroke:none;stroke-width:1.25;stroke-linecap:round;stroke-linejoin:round;stroke-miterlimit:4;stroke-opacity:1" />
  <path
     d="M 1780,760 L 1778.75,760 C 1778.75,760 1766.25,742.5 1747.5,742.5 C 1747.5,742.5 1732.5,742.5 1721.25,753.75 C 1721.25,753.75 1711.25,765 1711.25,780 C 1711.25,780 1711.25,796.25 1721.25,807.5 C 1721.25,807.5 1731.25,818.75 1746.25,818.75 C 1746.25,818.75 1767.5,818.75 1780,801.25 L 1780,825 C 1780,825 1766.25,835 1748.75,835 C 1748.75,835 1725,835 1708.75,820 C 1708.75,820 1693.75,803.75 1693.75,780 C 1693.75,780 1693.75,757.5 1710,742.5 C 1710,742.5 1726.25,726.25 1748.75,726.25 C 1748.75,726.25 1766.25,726.25 1780,737.5 L 1780,760"
     id="path2615"
     style="fill:#000000;stroke:none;stroke-width:1.25;stroke-linecap:round;stroke-linejoin:round;stroke-miterlimit:4;stroke-opacity:1" />
  <path
     d="M 1921.25,745 L 1902.5,745 L 1902.5,832.5 L 1885,832.5 L 1885,745 L 1873.75,745 L 1873.75,728.75 L 1885,728.75 L 1885,692.5 L 1902.5,692.5 L 1902.5,728.75 L 1921.25,728.75 L 1921.25,745"
     id="path2617"
     style="fill:#000000;stroke:none;stroke-width:1.25;stroke-linecap:round;stroke-linejoin:round;stroke-miterlimit:4;stroke-opacity:1" />
  <path
     d="M 2026.25,702.5 L 2017.5,698.75 L 2013.75,690 L 2017.5,681.25 C 2017.5,681.25 2021.25,677.5 2026.25,677.5 L 2033.75,681.25 L 2037.5,690 L 2033.75,698.75 L 2026.25,702.5"
     id="path2619"
     style="fill:#000000;stroke:none;stroke-width:1.25;stroke-linecap:round;stroke-linejoin:round;stroke-miterlimit:4;stroke-opacity:1" />
  <path
     d="M 2033.75,832.5 L 2017.5,832.5 L 2017.5,728.75 L 2033.75,728.75 L 2033.75,832.5"
     id="path2621"
     style="fill:#000000;stroke:none;stroke-width:1.25;stroke-linecap:round;stroke-linejoin:round;stroke-miterlimit:4;stroke-opacity:1" />
  <path
     d="M 2192.5,726.26282 C 2170,726.26282 2155,742.51282 2155,742.51282 C 2138.75,757.51282 2138.75,781.26282 2138.75,781.26282 C 2138.75,803.76282 2155,818.76282 2155,818.76282 C 2170,835.01282 2192.5,835.01282 2192.5,835.01282 C 2215,835.01282 2231.25,818.76282 2231.25,818.76282 C 2247.5,803.76282 2247.5,781.26282 2247.5,781.26282 C 2247.5,757.51282 2231.25,742.51282 2231.25,742.51282 C 2215,726.26282 2192.5,726.26282 2192.5,726.26282 z M 2191.7812,742.51282 C 2192.2451,742.49085 2192.5,742.51282 2192.5,742.51282 C 2208.75,742.51282 2218.75,753.76282 2218.75,753.76282 C 2230,765.01282 2230,780.01282 2230,780.01282 L 2218.75,807.51282 C 2208.75,818.76282 2192.5,818.76282 2192.5,818.76282 C 2176.25,818.76282 2166.25,807.51282 2166.25,807.51282 C 2156.25,796.26282 2156.25,780.01282 2156.25,780.01282 C 2156.25,765.01282 2166.25,753.76282 2166.25,753.76282 C 2175,743.91907 2188.5342,742.66663 2191.7812,742.51282 z"
     id="path2623"
     style="fill:#000000;stroke:none;stroke-width:1.25;stroke-linecap:round;stroke-linejoin:round;stroke-miterlimit:4;stroke-opacity:1" />
  <path
     d="M 2365,741.25 C 2365,741.25 2376.25,726.25 2395,726.25 C 2395,726.25 2430,726.25 2430,771.25 L 2430,832.5 L 2412.5,832.5 L 2412.5,773.75 L 2410,752.5 C 2410,752.5 2405,742.5 2391.25,742.5 C 2391.25,742.5 2375,742.5 2368.75,756.25 C 2368.75,756.25 2365,765 2365,783.75 L 2365,832.5 L 2347.5,832.5 L 2347.5,728.75 L 2365,728.75 L 2365,741.25"
     id="path2627"
     style="fill:#000000;stroke:none;stroke-width:1.25;stroke-linecap:round;stroke-linejoin:round;stroke-miterlimit:4;stroke-opacity:1" />
</svg>

