<?xml version="1.0" encoding="utf-8"?>

<!DOCTYPE svg PUBLIC "-//W3C//DTD SVG 1.1//EN" "http://www.w3.org/Graphics/SVG/1.1/DTD/svg11.dtd" [
	<!ENTITY ns_svg "http://www.w3.org/2000/svg">
	<!ENTITY ns_xlink "http://www.w3.org/1999/xlink">
]>
<svg  version="1.1" id="Layer_1" xmlns="&ns_svg;" xmlns:xlink="&ns_xlink;" width="376" height="126" viewBox="0 0 376 126"
	 overflow="visible" enable-background="new 0 0 376 126" xml:space="preserve">
<g>
	<path fill-rule="evenodd" clip-rule="evenodd" d="M348.813,19.91v-3.596h2.328c0.293,0,0.587,0.026,0.879,0.078
		c0.312,0.035,0.578,0.112,0.803,0.233c0.24,0.12,0.432,0.293,0.567,0.518c0.156,0.224,0.233,0.525,0.233,0.905
		c0,0.447-0.086,0.801-0.259,1.06c-0.154,0.241-0.37,0.423-0.646,0.543c-0.274,0.12-0.595,0.198-0.956,0.233
		c-0.345,0.017-0.716,0.025-1.111,0.025H348.813L348.813,19.91z M347.055,14.891v11.303h1.758v-4.862h1.863l3.077,4.862h1.889
		l-3.234-4.991c0.847-0.086,1.553-0.362,2.121-0.828c0.569-0.482,0.854-1.231,0.854-2.249c0-1.087-0.328-1.897-0.983-2.432
		c-0.638-0.535-1.63-0.803-2.974-0.803H347.055L347.055,14.891z M342.839,20.504c0-1.155,0.197-2.232,0.595-3.232
		c0.414-1,0.973-1.863,1.681-2.586c0.725-0.741,1.568-1.32,2.535-1.734c0.982-0.431,2.042-0.646,3.181-0.646
		c1.121,0,2.164,0.216,3.13,0.646c0.966,0.414,1.802,0.993,2.509,1.734c0.725,0.723,1.283,1.586,1.681,2.586
		c0.415,1,0.621,2.077,0.621,3.232c0,1.19-0.206,2.294-0.621,3.31c-0.397,1-0.956,1.871-1.681,2.613
		c-0.707,0.741-1.543,1.327-2.509,1.759c-0.966,0.413-2.009,0.621-3.13,0.621c-1.139,0-2.198-0.208-3.181-0.621
		c-0.967-0.432-1.811-1.018-2.535-1.759c-0.708-0.742-1.267-1.613-1.681-2.613C343.036,22.798,342.839,21.695,342.839,20.504
		L342.839,20.504z M341.08,20.504c0,1.396,0.259,2.69,0.774,3.881c0.519,1.171,1.216,2.198,2.096,3.077
		c0.896,0.862,1.931,1.534,3.104,2.017c1.19,0.482,2.447,0.723,3.775,0.723s2.578-0.24,3.75-0.723
		c1.174-0.482,2.199-1.154,3.079-2.017c0.878-0.879,1.577-1.906,2.094-3.077c0.517-1.19,0.776-2.484,0.776-3.881
		c0-1.361-0.26-2.63-0.776-3.803c-0.517-1.171-1.216-2.189-2.094-3.051c-0.88-0.861-1.905-1.535-3.079-2.019
		c-1.172-0.498-2.422-0.749-3.75-0.749s-2.585,0.251-3.775,0.749c-1.174,0.483-2.208,1.157-3.104,2.019
		c-0.88,0.861-1.577,1.88-2.096,3.051C341.339,17.875,341.08,19.143,341.08,20.504L341.08,20.504z"/>
	<g>
		<path fill-rule="evenodd" clip-rule="evenodd" d="M55.974,42.672v8.714H37.174v62.665H26.321V51.386h-10.85v-8.714h10.85V32.126
			c0-7.946,1.887-13.552,5.656-16.811c3.466-2.957,9.222-4.433,17.272-4.433c0.814,0,1.936,0.051,3.364,0.151
			c1.528,0.103,2.646,0.154,3.361,0.154v8.864c-1.732-0.205-4.332-0.306-7.795-0.306c-4.078,0-6.93,0.919-8.561,2.75
			c-1.629,1.733-2.444,4.637-2.444,8.712v11.463H55.974L55.974,42.672z"/>
		<path fill-rule="evenodd" clip-rule="evenodd" d="M135.945,88.221h10.545c0,10.598-2.293,17.781-6.876,21.549
			c-4.176,3.365-11.871,5.041-23.08,5.041c-13.958,0-22.977-3.104-27.054-9.32c-3.054-4.584-4.586-14.367-4.586-29.344
			c0-12.637,2.091-21.396,6.269-26.29c4.484-5.297,12.888-7.945,25.22-7.945c9.168,0,15.944,1.221,20.326,3.664
			c5.706,3.364,8.559,9.374,8.559,18.037c0,0.203,0,0.559,0,1.069c-0.103,0.51-0.155,0.92-0.155,1.225h-10.39
			c0-6.213-1.276-10.344-3.819-12.379c-2.447-2.04-6.879-3.058-13.299-3.058c-9.377,0-15.335,1.479-17.883,4.434
			c-2.444,2.951-3.67,9.578-3.67,19.869v7.184c0,9.168,0.919,15.182,2.753,18.033c2.545,4.074,8.099,6.115,16.66,6.115
			c8.354,0,13.754-0.922,16.199-2.752C134.52,101.111,135.945,96.066,135.945,88.221L135.945,88.221z"/>
		<path fill-rule="evenodd" clip-rule="evenodd" d="M241.441,42.672v71.378h-9.937v-9.477c-2.85,4.279-6.42,7.232-10.696,8.865
			c-3.26,1.117-7.85,1.678-13.76,1.678c-16.505,0-24.757-8.305-24.757-24.908V42.672h10.849v47.537
			c0,6.316,1.072,10.594,3.213,12.838c2.136,2.135,6.467,3.207,12.993,3.207c8.249,0,13.853-1.527,16.809-4.582
			c2.956-3.162,4.434-8.813,4.434-16.967V42.672H241.441L241.441,42.672z"/>
		<polygon fill-rule="evenodd" clip-rule="evenodd" points="292.372,12.107 292.372,71.408 296.65,71.408 322.327,42.672 
			335.472,42.672 305.057,75.535 340.974,114.051 326.912,114.051 296.65,79.664 292.372,79.664 292.372,114.051 281.518,114.051 
			281.518,12.107 292.372,12.107 		"/>
	</g>
</g>
</svg>
