<?xml version="1.0" encoding="UTF-8" standalone="no"?>
<!DOCTYPE svg PUBLIC "-//W3C//DTD SVG 1.1//EN" "http://www.w3.org/Graphics/SVG/1.1/DTD/svg11.dtd">

<svg
   xmlns:svg="http://www.w3.org/2000/svg"
   xmlns="http://www.w3.org/2000/svg"
   version="1.1"
   width="1024"
   height="146"
   viewBox="-0.8827125 -0.8827125 218.250705 31.189175"
   id="svg72090">
  <defs
     id="defs72092" />
  <path
     d="m 212.66525,15.43125 c 0.585,0.004 1.4925,0.1075 1.4975,-0.74 0.004,-0.64625 -0.5625,-0.72625 -1.08,-0.73125 l -1.19125,-0.008 -0.0125,1.47875 0.78625,0 z m 1.94,2.34 -0.6075,-0.004 -1.18375,-1.93375 -0.935,-0.004 -0.0112,1.92375 -0.50625,-0.004 0.0238,-4.16625 1.81625,0.007 c 0.35125,0 0.70125,0.0238 1.01125,0.21125 0.315,0.17625 0.4675,0.54625 0.4675,0.9 -0.004,0.81875 -0.5825,1.12 -1.3225,1.135 l 1.2475,1.93375 z m 1.4275,-2.08375 c 0.0113,-1.81125 -1.44875,-3.28 -3.25375,-3.29125 -1.81625,-0.0137 -3.29,1.44875 -3.2975,3.25375 -0.0163,1.83 1.44125,3.30125 3.26125,3.3125 1.81,0.008 3.27875,-1.45125 3.29,-3.275 m -7.015,-0.0412 c 0.0112,-2.0475 1.69,-3.71125 3.76125,-3.70125 2.05875,0.0112 3.71375,1.69375 3.70625,3.74375 -0.0125,2.06875 -1.68625,3.73125 -3.74625,3.7225 -2.07,-0.0113 -3.73375,-1.69125 -3.72125,-3.765"
     id="path71512"
     style="fill:#000000;fill-opacity:1;fill-rule:nonzero;stroke:none" />
  <path
     d="m 79.36475,5.586 c 1.31625,1.77625 7.9875,10.78625 9.8425,13.29 l -19.56625,0 c 1.82625,-2.4975 8.41875,-11.50625 9.72375,-13.29 m 4.15,-5.37125 -9.13875,0 -21.1075,28.99375 9.01125,0 c 0,0 3.61,-4.94875 4.155,-5.69375 l 26.07,0 c 0.54625,0.735 4.22625,5.69375 4.22625,5.69375 l 8.96625,0 -21.64875,-28.99375 -0.53375,0 m 130.655,6.2e-4 -41.96875,0 0,4.8175 17.40625,0 0,24.17625 8.22125,0 0,-24.17625 17.40625,0 0,-4.8175 -1.065,0 z m -51.7895,0 -7.15375,0 0,23.4725 c -2.8625,-2.335 -28.78375,-23.4725 -28.78375,-23.4725 l -11.47375,0 0,28.99375 8.22,0 0,-23.30625 c 2.85625,2.3075 28.85875,23.30625 28.85875,23.30625 l 11.39875,0 0,-28.99375 -1.06625,0 M 16.825,0 C 12.66375,0 0,0 0,10.41375 l 0,8.31 c 0,9.955 8.59,10.7 21.69625,10.7 l 5.87375,0 c 11.97125,0 18.9025,-1.4525 18.9025,-8.87375 l 0,-6.90375 -25.34125,0 0,4.81875 17.12,0 0,2.26375 c 0,2.94625 -0.54125,3.8775 -11.89875,3.8775 l -5.73125,0 C 10.09375,24.60625 8.22,23.2425 8.22,19.40375 l 0,-8.63125 c 0,-4.72 0.48625,-5.955 12.25875,-5.955 l 7.52125,0 c 9.4275,0 10.10875,1.04625 10.10875,2.7675 l 0,2.60625 8.22,0 0,-3.14375 C 46.32875,3.8325 43.65875,0 30.93625,0 L 16.825,0"
     id="path71536"
     style="fill:#000000;fill-opacity:1;fill-rule:nonzero;stroke:none" />
</svg>

